<?xml version="1.0" standalone="no"?><!-- Generator: Gravit.io --><svg xmlns="http://www.w3.org/2000/svg" xmlns:xlink="http://www.w3.org/1999/xlink" style="isolation:isolate" viewBox="0 0 1920 1080" width="1920" height="1080"><defs><clipPath id="_clipPath_4yrCwX7IWrQ1Ba0dIa8CWyo9utM6Fp91"><rect width="1920" height="1080"/></clipPath></defs><g clip-path="url(#_clipPath_4yrCwX7IWrQ1Ba0dIa8CWyo9utM6Fp91)"><g id="deer"><g id="Group"><path d=" M 1630.314 248.803 C 1629.151 251.425 1610.297 256.551 1608.359 262.363 C 1606.422 268.174 1601.256 283.672 1603.839 287.546 C 1605.605 290.194 1610.12 299.207 1612.251 306.039 C 1613.044 308.583 1614.171 311.944 1614.171 313.375 Q 1614.171 317.895 1614.171 323.061 Q 1633.126 316.264 1637 317.555 C 1640.874 318.846 1645.033 323.889 1639.867 330.346 C 1634.701 336.803 1629.668 344.369 1627.085 354.055 C 1624.502 363.741 1624.502 362.45 1619.982 365.032 C 1615.462 367.615 1595.76 380.628 1589.585 378.864 C 1589.455 375.392 1590.168 370.619 1588.342 368.261 Q 1591.349 366.309 1598.028 368.261 L 1597.083 364.387 Q 1613.136 359.677 1615.718 355.156 Q 1618.301 350.636 1622.335 339.204 Q 1585.113 358.575 1559.285 359.867 C 1533.456 361.158 1511.501 357.284 1507.627 361.158 C 1503.753 365.032 1503.91 372.99 1489.792 388.568 C 1483.397 395.625 1477.001 398.712 1472.173 401.984 C 1469.05 407.981 1465.092 414.812 1459.198 421.856 C 1454.032 427.667 1441.495 436.204 1435.952 438.645 Q 1431.446 436.674 1432.078 427.022 L 1438.535 424.439 L 1438.535 421.21 Q 1443.701 425.085 1446.929 421.21 Q 1457.814 411.504 1461.781 396.027 C 1464.162 386.735 1463.989 387.906 1463.718 384.404 Q 1473.404 379.884 1474.049 370.844 C 1470.606 364.529 1465.187 355.768 1469.062 340.27 C 1469.723 337.844 1454.506 333.434 1461.135 316.603 C 1465.22 320.668 1468.884 327.581 1474.695 325.643 C 1482.073 315.791 1490.192 314.666 1524.416 312.083 C 1558.639 309.5 1565.096 294.003 1567.679 290.129 L 1576.719 250.094 Q 1560.254 247.976 1556.056 237.18 Q 1560.254 233.861 1566.388 235.888 Q 1547.016 223.619 1541.85 213.934 C 1536.684 204.248 1522.478 184.876 1515.376 183.585 Q 1508.273 182.293 1526.353 185.522 Q 1511.501 171.962 1519.25 142.904 C 1522.542 143.442 1517.911 159.982 1520.998 164.393 C 1523.424 156.453 1523.896 160.048 1526.353 145.028 Q 1528.055 134.62 1537.133 133 Q 1532.241 136.873 1531.017 141.562 Q 1529.794 146.251 1528.775 154.202 L 1535.706 150.94 L 1528.775 157.872 L 1527.755 165.007 Q 1539.784 157.489 1547.531 156.674 C 1540.709 161.909 1528.571 166.638 1527.144 170.511 C 1525.717 174.385 1525.921 180.093 1535.706 189.879 C 1545.492 199.664 1544.375 179.169 1545.9 168.88 C 1546.801 173.655 1546.055 174.727 1547.531 175.404 C 1549.006 176.081 1550.329 174.096 1553.239 170.715 C 1550.019 175.781 1548.786 179.83 1548.142 186.821 C 1547.542 193.345 1548.55 191.102 1548.958 195.791 C 1549.365 200.48 1546.104 202.722 1548.958 209.042 C 1551.812 215.362 1555.481 219.643 1558.539 221.682 C 1561.597 223.721 1566.49 225.555 1566.898 214.547 C 1567.306 203.538 1566.388 202.703 1566.388 199.237 C 1566.388 195.772 1570.771 188.859 1572.198 187.025 C 1573.625 185.19 1571.179 194.975 1571.587 197.83 C 1571.995 200.684 1570.567 209.246 1574.645 209.246 C 1578.722 209.246 1584.43 201.295 1585.042 197.83 Q 1585.654 194.364 1587.081 188.656 Q 1588.508 195.41 1587.081 202.545 C 1585.654 209.681 1574.441 217.401 1574.849 220.866 C 1575.256 224.332 1578.518 228.41 1582.188 229.837 C 1585.857 231.264 1589.812 226.779 1598.028 227.798 C 1606.244 228.817 1612.156 234.397 1616.03 235.888 C 1619.903 237.38 1628.341 236.019 1630.912 238.807 C 1633.751 241.885 1633.279 245.839 1630.314 248.803 Z " fill="rgb(196,187,69)" vector-effect="non-scaling-stroke" stroke-width="1.85" stroke="rgb(196,187,69)" stroke-linejoin="miter" stroke-linecap="square" stroke-miterlimit="3"/><path d=" M 1597.094 237.582 C 1597.094 236.644 1598.781 235.882 1600.858 235.882 C 1602.936 235.882 1604.622 236.644 1604.622 237.582 C 1604.622 238.521 1602.936 239.282 1600.858 239.282 C 1598.781 239.282 1597.094 238.521 1597.094 237.582 Z " fill="rgb(255,255,255)"/></g></g><g id="star5"><g id="star4"><g id="star"><g id="Group"><path d=" M 339.684 891.868 L 217.268 899.171 L 211.817 1021.684 L 204.513 899.268 L 82 893.817 L 204.417 886.513 L 209.868 764 L 217.171 886.417 L 339.684 891.868 Z " fill="rgb(196,187,69)"/><path d=" M 183.027 868.222 C 201.039 886.234 200.609 903.075 183.027 920.658 C 200.609 903.075 218.445 903.641 235.462 920.658 C 219.067 904.262 218.637 885.047 235.462 868.222 C 218.637 885.047 200.417 885.613 183.027 868.222 Z " fill="rgb(196,187,69)"/></g></g></g></g><g id="star4"><g id="star5"><g id="star4"><g id="star"><g id="Group"><path d=" M 931 367.956 L 864.341 371.933 L 861.373 438.645 L 857.396 371.986 L 790.684 369.017 L 857.343 365.04 L 860.312 298.329 L 864.289 364.988 L 931 367.956 Z " fill="rgb(196,187,69)"/><path d=" M 845.696 355.081 C 855.504 364.889 855.27 374.059 845.696 383.633 C 855.27 374.059 864.982 374.367 874.248 383.633 C 865.321 374.705 865.087 364.242 874.248 355.081 C 865.087 364.242 855.166 364.55 845.696 355.081 Z " fill="rgb(196,187,69)"/></g></g></g></g></g><g id="star4"><g id="star5"><g id="star4"><g id="star"><g id="Group"><path d=" M 1393.316 785.627 L 1326.657 789.604 L 1323.688 856.316 L 1319.711 789.657 L 1253 786.688 L 1319.659 782.711 L 1322.627 716 L 1326.604 782.659 L 1393.316 785.627 Z " fill="rgb(196,187,69)"/><path d=" M 1308.011 772.752 C 1317.82 782.56 1317.586 791.73 1308.011 801.304 C 1317.586 791.73 1327.298 792.038 1336.564 801.304 C 1327.636 792.376 1327.402 781.913 1336.564 772.752 C 1327.402 781.913 1317.481 782.221 1308.011 772.752 Z " fill="rgb(196,187,69)"/></g></g></g></g></g><g id="star3"><g id="star4"><g id="star5"><g id="star4"><g id="star"><g id="Group"><path d=" M 708.316 592.809 L 664.46 595.425 L 662.507 639.316 L 659.89 595.46 L 616 593.507 L 659.856 590.89 L 661.809 547 L 664.425 590.856 L 708.316 592.809 Z " fill="rgb(196,187,69)"/><path d=" M 652.193 584.338 C 658.646 590.791 658.492 596.824 652.193 603.123 C 658.492 596.824 664.881 597.026 670.978 603.123 C 665.104 597.249 664.95 590.365 670.978 584.338 C 664.95 590.365 658.423 590.568 652.193 584.338 Z " fill="rgb(196,187,69)"/></g></g></g></g></g></g><g id="star3"><g id="star4"><g id="star5"><g id="star4"><g id="star"><g id="Group"><path d=" M 1947 631.651 L 1903.144 634.267 L 1901.191 678.158 L 1898.575 634.302 L 1854.684 632.349 L 1898.54 629.733 L 1900.493 585.842 L 1903.11 629.698 L 1947 631.651 Z " fill="rgb(196,187,69)"/><path d=" M 1890.877 623.18 C 1897.33 629.633 1897.176 635.666 1890.877 641.965 C 1897.176 635.666 1903.566 635.869 1909.662 641.965 C 1903.789 636.091 1903.635 629.208 1909.662 623.18 C 1903.635 629.208 1897.107 629.41 1890.877 623.18 Z " fill="rgb(196,187,69)"/></g></g></g></g></g></g><g id="star3"><g id="star4"><g id="star5"><g id="star4"><g id="star"><g id="Group"><path d=" M 1703.316 442.493 L 1659.46 445.11 L 1657.507 489 L 1654.89 445.144 L 1611 443.191 L 1654.856 440.575 L 1656.809 396.684 L 1659.425 440.54 L 1703.316 442.493 Z " fill="rgb(196,187,69)"/><path d=" M 1647.193 434.022 C 1653.646 440.475 1653.492 446.508 1647.193 452.807 C 1653.492 446.508 1659.881 446.711 1665.978 452.807 C 1660.104 446.933 1659.95 440.05 1665.978 434.022 C 1659.95 440.05 1653.423 440.252 1647.193 434.022 Z " fill="rgb(196,187,69)"/></g></g></g></g></g></g><g id="star3"><g id="star4"><g id="star5"><g id="star4"><g id="star"><g id="Group"><path d=" M 790.684 652.493 L 746.829 655.11 L 744.876 699 L 742.259 655.144 L 698.369 653.191 L 742.225 650.575 L 744.178 606.684 L 746.794 650.54 L 790.684 652.493 Z " fill="rgb(196,187,69)"/><path d=" M 734.562 644.022 C 741.015 650.475 740.861 656.508 734.562 662.807 C 740.861 656.508 747.25 656.711 753.347 662.807 C 747.473 656.933 747.319 650.05 753.347 644.022 C 747.319 650.05 740.792 650.252 734.562 644.022 Z " fill="rgb(196,187,69)"/></g></g></g></g></g></g><g id="star3"><g id="star4"><g id="star5"><g id="star4"><g id="star"><g id="Group"><path d=" M 960 862.809 L 916.144 865.425 L 914.191 909.316 L 911.575 865.46 L 867.684 863.507 L 911.54 860.89 L 913.493 817 L 916.11 860.856 L 960 862.809 Z " fill="rgb(196,187,69)"/><path d=" M 903.877 854.338 C 910.33 860.791 910.176 866.824 903.877 873.123 C 910.176 866.824 916.566 867.026 922.662 873.123 C 916.789 867.249 916.635 860.365 922.662 854.338 C 916.635 860.365 910.107 860.568 903.877 854.338 Z " fill="rgb(196,187,69)"/></g></g></g></g></g></g><g id="star3"><g id="star4"><g id="star5"><g id="star4"><g id="star"><g id="Group"><path d=" M 1120.158 574.493 L 1076.302 577.11 L 1074.349 621 L 1071.733 577.144 L 1027.842 575.191 L 1071.698 572.575 L 1073.651 528.684 L 1076.267 572.54 L 1120.158 574.493 Z " fill="rgb(196,187,69)"/><path d=" M 1064.035 566.022 C 1070.488 572.475 1070.334 578.508 1064.035 584.807 C 1070.334 578.508 1076.724 578.711 1082.82 584.807 C 1076.946 578.933 1076.792 572.05 1082.82 566.022 C 1076.792 572.05 1070.265 572.252 1064.035 566.022 Z " fill="rgb(196,187,69)"/></g></g></g></g></g></g><g id="star3"><g id="star4"><g id="star5"><g id="star4"><g id="star"><g id="Group"><path d=" M 1351.316 438.651 L 1307.46 441.267 L 1305.507 485.158 L 1302.89 441.302 L 1259 439.349 L 1302.856 436.733 L 1304.809 392.842 L 1307.425 436.698 L 1351.316 438.651 Z " fill="rgb(196,187,69)"/><path d=" M 1295.193 430.18 C 1301.646 436.633 1301.492 442.666 1295.193 448.965 C 1301.492 442.666 1307.881 442.869 1313.978 448.965 C 1308.104 443.091 1307.95 436.208 1313.978 430.18 C 1307.95 436.208 1301.423 436.41 1295.193 430.18 Z " fill="rgb(196,187,69)"/></g></g></g></g></g></g><g id="star2"><g id="star3"><g id="star4"><g id="star5"><g id="star4"><g id="star"><g id="Group"><path d=" M 542 493.594 L 510.796 495.456 L 509.406 526.684 L 507.544 495.48 L 476.316 494.091 L 507.52 492.229 L 508.909 461 L 510.771 492.204 L 542 493.594 Z " fill="rgb(196,187,69)"/><path d=" M 502.067 487.566 C 506.659 492.158 506.549 496.451 502.067 500.933 C 506.549 496.451 511.096 496.595 515.434 500.933 C 511.254 496.753 511.145 491.855 515.434 487.566 C 511.145 491.855 506.5 491.999 502.067 487.566 Z " fill="rgb(196,187,69)"/></g></g></g></g></g></g></g><g id="star2"><g id="star3"><g id="star4"><g id="star5"><g id="star4"><g id="star"><g id="Group"><path d=" M 136.684 989.436 L 105.48 991.298 L 104.091 1022.527 L 102.229 991.322 L 71 989.933 L 102.204 988.071 L 103.594 956.842 L 105.456 988.047 L 136.684 989.436 Z " fill="rgb(196,187,69)"/><path d=" M 96.752 983.409 C 101.343 988 101.234 992.293 96.752 996.775 C 101.234 992.293 105.78 992.437 110.118 996.775 C 105.939 992.595 105.829 987.698 110.118 983.409 C 105.829 987.698 101.185 987.842 96.752 983.409 Z " fill="rgb(196,187,69)"/></g></g></g></g></g></g></g><g id="star2"><g id="star3"><g id="star4"><g id="star5"><g id="star4"><g id="star"><g id="Group"><path d=" M 178.369 706.752 L 147.165 708.613 L 145.775 739.842 L 143.913 708.638 L 112.684 707.248 L 143.889 705.387 L 145.278 674.158 L 147.14 705.362 L 178.369 706.752 Z " fill="rgb(196,187,69)"/><path d=" M 138.436 700.724 C 143.028 705.316 142.918 709.608 138.436 714.09 C 142.918 709.608 147.465 709.753 151.802 714.09 C 147.623 709.911 147.514 705.013 151.802 700.724 C 147.514 705.013 142.869 705.157 138.436 700.724 Z " fill="rgb(196,187,69)"/></g></g></g></g></g></g></g><g id="star2"><g id="star3"><g id="star4"><g id="star5"><g id="star4"><g id="star"><g id="Group"><path d=" M 1611 739.594 L 1579.796 741.456 L 1578.406 772.684 L 1576.544 741.48 L 1545.316 740.091 L 1576.52 738.229 L 1577.909 707 L 1579.771 738.204 L 1611 739.594 Z " fill="rgb(196,187,69)"/><path d=" M 1571.067 733.566 C 1575.659 738.158 1575.549 742.451 1571.067 746.933 C 1575.549 742.451 1580.096 742.595 1584.434 746.933 C 1580.254 742.753 1580.145 737.855 1584.434 733.566 C 1580.145 737.855 1575.5 737.999 1571.067 733.566 Z " fill="rgb(196,187,69)"/></g></g></g></g></g></g></g><g id="star2"><g id="star3"><g id="star4"><g id="star5"><g id="star4"><g id="star"><g id="Group"><path d=" M 1012.684 1060.436 L 981.48 1062.298 L 980.091 1093.527 L 978.229 1062.322 L 947 1060.933 L 978.204 1059.071 L 979.594 1027.842 L 981.456 1059.047 L 1012.684 1060.436 Z " fill="rgb(196,187,69)"/><path d=" M 972.752 1054.409 C 977.343 1059 977.234 1063.293 972.752 1067.775 C 977.234 1063.293 981.78 1063.437 986.118 1067.775 C 981.939 1063.595 981.829 1058.698 986.118 1054.409 C 981.829 1058.698 977.185 1058.842 972.752 1054.409 Z " fill="rgb(196,187,69)"/></g></g></g></g></g></g></g><g id="star2"><g id="star3"><g id="star4"><g id="star5"><g id="star4"><g id="star"><g id="Group"><path d=" M 462.527 27.067 L 431.322 28.929 L 429.933 60.158 L 428.071 28.953 L 396.842 27.564 L 428.047 25.702 L 429.436 -5.527 L 431.298 25.678 L 462.527 27.067 Z " fill="rgb(196,187,69)"/><path d=" M 422.594 21.04 C 427.186 25.631 427.076 29.924 422.594 34.406 C 427.076 29.924 431.622 30.068 435.96 34.406 C 431.781 30.227 431.671 25.329 435.96 21.04 C 431.671 25.329 427.027 25.473 422.594 21.04 Z " fill="rgb(196,187,69)"/></g></g></g></g></g></g></g><g id="star2"><g id="star3"><g id="star4"><g id="star5"><g id="star4"><g id="star"><g id="Group"><path d=" M 1351.316 603.594 L 1320.111 605.456 L 1318.722 636.684 L 1316.86 605.48 L 1285.631 604.091 L 1316.835 602.229 L 1318.225 571 L 1320.087 602.204 L 1351.316 603.594 Z " fill="rgb(196,187,69)"/><path d=" M 1311.383 597.566 C 1315.974 602.158 1315.865 606.451 1311.383 610.933 C 1315.865 606.451 1320.411 606.595 1324.749 610.933 C 1320.57 606.753 1320.46 601.855 1324.749 597.566 C 1320.46 601.855 1315.816 601.999 1311.383 597.566 Z " fill="rgb(196,187,69)"/></g></g></g></g></g></g></g><g id="star2"><g id="star3"><g id="star4"><g id="star5"><g id="star4"><g id="star"><g id="Group"><path d=" M 1761 956.594 L 1729.796 958.456 L 1728.406 989.684 L 1726.544 958.48 L 1695.316 957.091 L 1726.52 955.229 L 1727.909 924 L 1729.771 955.204 L 1761 956.594 Z " fill="rgb(196,187,69)"/><path d=" M 1721.067 950.566 C 1725.659 955.158 1725.549 959.451 1721.067 963.933 C 1725.549 959.451 1730.096 959.595 1734.434 963.933 C 1730.254 959.753 1730.145 954.855 1734.434 950.566 C 1730.145 954.855 1725.5 954.999 1721.067 950.566 Z " fill="rgb(196,187,69)"/></g></g></g></g></g></g></g><g id="star2"><g id="star3"><g id="star4"><g id="star5"><g id="star4"><g id="star"><g id="Group"><path d=" M 599.158 781.436 L 567.953 783.298 L 566.564 814.527 L 564.702 783.322 L 533.473 781.933 L 564.678 780.071 L 566.067 748.842 L 567.929 780.047 L 599.158 781.436 Z " fill="rgb(196,187,69)"/><path d=" M 559.225 775.409 C 563.817 780 563.707 784.293 559.225 788.775 C 563.707 784.293 568.253 784.437 572.591 788.775 C 568.412 784.595 568.302 779.698 572.591 775.409 C 568.302 779.698 563.658 779.842 559.225 775.409 Z " fill="rgb(196,187,69)"/></g></g></g></g></g></g></g><g id="star2"><g id="star3"><g id="star4"><g id="star5"><g id="star4"><g id="star"><g id="Group"><path d=" M 614.842 252.732 L 583.638 254.593 L 582.248 285.822 L 580.387 254.618 L 549.158 253.228 L 580.362 251.367 L 581.752 220.138 L 583.613 251.342 L 614.842 252.732 Z " fill="rgb(196,187,69)"/><path d=" M 574.91 246.704 C 579.501 251.296 579.392 255.588 574.91 260.07 C 579.392 255.588 583.938 255.733 588.276 260.07 C 584.096 255.891 583.987 250.993 588.276 246.704 C 583.987 250.993 579.343 251.137 574.91 246.704 Z " fill="rgb(196,187,69)"/></g></g></g></g></g></g></g><g id="star2"><g id="star3"><g id="star4"><g id="star5"><g id="star4"><g id="star"><g id="Group"><path d=" M 1160.684 715.752 L 1129.48 717.613 L 1128.091 748.842 L 1126.229 717.638 L 1095 716.248 L 1126.204 714.387 L 1127.594 683.158 L 1129.456 714.362 L 1160.684 715.752 Z " fill="rgb(196,187,69)"/><path d=" M 1120.752 709.724 C 1125.343 714.316 1125.234 718.608 1120.752 723.09 C 1125.234 718.608 1129.78 718.753 1134.118 723.09 C 1129.939 718.911 1129.829 714.013 1134.118 709.724 C 1129.829 714.013 1125.185 714.157 1120.752 709.724 Z " fill="rgb(196,187,69)"/></g></g></g></g></g></g></g><g id="star2"><g id="star3"><g id="star4"><g id="star5"><g id="star4"><g id="star"><g id="Group"><path d=" M 632 583.594 L 600.796 585.456 L 599.406 616.684 L 597.544 585.48 L 566.316 584.091 L 597.52 582.229 L 598.909 551 L 600.771 582.204 L 632 583.594 Z " fill="rgb(196,187,69)"/><path d=" M 592.067 577.566 C 596.659 582.158 596.549 586.451 592.067 590.933 C 596.549 586.451 601.096 586.595 605.434 590.933 C 601.254 586.753 601.145 581.855 605.434 577.566 C 601.145 581.855 596.5 581.999 592.067 577.566 Z " fill="rgb(196,187,69)"/></g></g></g></g></g></g></g><g id="star2"><g id="star3"><g id="star4"><g id="star5"><g id="star4"><g id="star"><g id="Group"><path d=" M 1351.316 -5.775 L 1320.111 -3.913 L 1318.722 27.316 L 1316.86 -3.889 L 1285.631 -5.278 L 1316.835 -7.14 L 1318.225 -38.369 L 1320.087 -7.165 L 1351.316 -5.775 Z " fill="rgb(196,187,69)"/><path d=" M 1311.383 -11.802 C 1315.974 -7.211 1315.865 -2.918 1311.383 1.564 C 1315.865 -2.918 1320.411 -2.774 1324.749 1.564 C 1320.57 -2.616 1320.46 -7.514 1324.749 -11.802 C 1320.46 -7.514 1315.816 -7.37 1311.383 -11.802 Z " fill="rgb(196,187,69)"/></g></g></g></g></g></g></g><g id="star2"><g id="star3"><g id="star4"><g id="star5"><g id="star4"><g id="star"><g id="Group"><path d=" M 1854.684 76.752 L 1823.48 78.613 L 1822.091 109.842 L 1820.229 78.638 L 1789 77.248 L 1820.204 75.387 L 1821.594 44.158 L 1823.456 75.362 L 1854.684 76.752 Z " fill="rgb(196,187,69)"/><path d=" M 1814.752 70.724 C 1819.343 75.316 1819.234 79.608 1814.752 84.09 C 1819.234 79.608 1823.78 79.753 1828.118 84.09 C 1823.939 79.911 1823.829 75.013 1828.118 70.724 C 1823.829 75.013 1819.185 75.157 1814.752 70.724 Z " fill="rgb(196,187,69)"/></g></g></g></g></g></g></g><g id="star2"><g id="star3"><g id="star4"><g id="star5"><g id="star4"><g id="star"><g id="Group"><path d=" M 1025.684 612.909 L 994.48 614.771 L 993.091 646 L 991.229 614.796 L 960 613.406 L 991.204 611.544 L 992.594 580.316 L 994.456 611.52 L 1025.684 612.909 Z " fill="rgb(196,187,69)"/><path d=" M 985.752 606.882 C 990.343 611.473 990.234 615.766 985.752 620.248 C 990.234 615.766 994.78 615.91 999.118 620.248 C 994.939 616.069 994.829 611.171 999.118 606.882 C 994.829 611.171 990.185 611.315 985.752 606.882 Z " fill="rgb(196,187,69)"/></g></g></g></g></g></g></g><g id="star1"><g id="star2"><g id="star3"><g id="star4"><g id="star5"><g id="star4"><g id="star"><g id="Group"><path d=" M 351.684 403.654 L 328.081 405.063 L 327.03 428.684 L 325.622 405.081 L 302 404.03 L 325.603 402.622 L 326.654 379 L 328.063 402.603 L 351.684 403.654 Z " fill="rgb(196,187,69)"/><path d=" M 321.479 399.095 C 324.952 402.568 324.869 405.815 321.479 409.205 C 324.869 405.815 328.308 405.924 331.589 409.205 C 328.428 406.044 328.345 402.339 331.589 399.095 C 328.345 402.339 324.832 402.448 321.479 399.095 Z " fill="rgb(196,187,69)"/></g></g></g></g></g></g></g></g><g id="star1"><g id="star2"><g id="star3"><g id="star4"><g id="star5"><g id="star4"><g id="star"><g id="Group"><path d=" M 1277.842 223.615 L 1254.239 225.023 L 1253.188 248.645 L 1251.78 225.041 L 1228.158 223.99 L 1251.761 222.582 L 1252.812 198.96 L 1254.22 222.563 L 1277.842 223.615 Z " fill="rgb(196,187,69)"/><path d=" M 1247.637 219.055 C 1251.11 222.528 1251.027 225.775 1247.637 229.166 C 1251.027 225.775 1254.466 225.884 1257.747 229.166 C 1254.586 226.004 1254.503 222.299 1257.747 219.055 C 1254.503 222.299 1250.99 222.408 1247.637 219.055 Z " fill="rgb(196,187,69)"/></g></g></g></g></g></g></g></g><g id="star1"><g id="star2"><g id="star3"><g id="star4"><g id="star5"><g id="star4"><g id="star"><g id="Group"><path d=" M 501.158 977.97 L 477.554 979.378 L 476.503 1003 L 475.095 979.397 L 451.473 978.346 L 475.077 976.937 L 476.128 953.316 L 477.536 976.919 L 501.158 977.97 Z " fill="rgb(196,187,69)"/><path d=" M 470.952 973.411 C 474.425 976.884 474.342 980.131 470.952 983.521 C 474.342 980.131 477.781 980.24 481.063 983.521 C 477.901 980.36 477.818 976.655 481.063 973.411 C 477.818 976.655 474.305 976.764 470.952 973.411 Z " fill="rgb(196,187,69)"/></g></g></g></g></g></g></g></g><g id="star1"><g id="star2"><g id="star3"><g id="star4"><g id="star5"><g id="star4"><g id="star"><g id="Group"><path d=" M 1695.316 76.812 L 1671.712 78.22 L 1670.661 101.842 L 1669.253 78.239 L 1645.631 77.188 L 1669.234 75.78 L 1670.285 52.158 L 1671.694 75.761 L 1695.316 76.812 Z " fill="rgb(196,187,69)"/><path d=" M 1665.11 72.253 C 1668.583 75.726 1668.5 78.973 1665.11 82.363 C 1668.5 78.973 1671.939 79.082 1675.22 82.363 C 1672.059 79.202 1671.976 75.497 1675.22 72.253 C 1671.976 75.497 1668.463 75.606 1665.11 72.253 Z " fill="rgb(196,187,69)"/></g></g></g></g></g></g></g></g><g id="star1"><g id="star2"><g id="star3"><g id="star4"><g id="star5"><g id="star4"><g id="star"><g id="Group"><path d=" M 1354.842 195.108 L 1331.239 196.516 L 1330.188 220.138 L 1328.78 196.535 L 1305.158 195.483 L 1328.761 194.075 L 1329.812 170.453 L 1331.22 194.057 L 1354.842 195.108 Z " fill="rgb(196,187,69)"/><path d=" M 1324.637 190.549 C 1328.11 194.022 1328.027 197.269 1324.637 200.659 C 1328.027 197.269 1331.466 197.378 1334.747 200.659 C 1331.586 197.498 1331.503 193.793 1334.747 190.549 C 1331.503 193.793 1327.99 193.902 1324.637 190.549 Z " fill="rgb(196,187,69)"/></g></g></g></g></g></g></g></g><g id="star1"><g id="star2"><g id="star3"><g id="star4"><g id="star5"><g id="star4"><g id="star"><g id="Group"><path d=" M 1551.684 303.299 L 1528.081 304.707 L 1527.03 328.329 L 1525.622 304.726 L 1502 303.675 L 1525.603 302.267 L 1526.654 278.645 L 1528.063 302.248 L 1551.684 303.299 Z " fill="rgb(196,187,69)"/><path d=" M 1521.479 298.74 C 1524.952 302.213 1524.869 305.46 1521.479 308.85 C 1524.869 305.46 1528.308 305.569 1531.589 308.85 C 1528.428 305.689 1528.345 301.984 1531.589 298.74 C 1528.345 301.984 1524.832 302.093 1521.479 298.74 Z " fill="rgb(196,187,69)"/></g></g></g></g></g></g></g></g><g id="star1"><g id="star2"><g id="star3"><g id="star4"><g id="star5"><g id="star4"><g id="star"><g id="Group"><path d=" M 170.369 428.497 L 146.766 429.905 L 145.715 453.527 L 144.306 429.923 L 120.684 428.872 L 144.288 427.464 L 145.339 403.842 L 146.747 427.446 L 170.369 428.497 Z " fill="rgb(196,187,69)"/><path d=" M 140.164 423.937 C 143.636 427.41 143.554 430.658 140.164 434.048 C 143.554 430.658 146.993 430.767 150.274 434.048 C 147.112 430.886 147.03 427.182 150.274 423.937 C 147.03 427.182 143.517 427.291 140.164 423.937 Z " fill="rgb(196,187,69)"/></g></g></g></g></g></g></g></g><g id="star1"><g id="star2"><g id="star3"><g id="star4"><g id="star5"><g id="star4"><g id="star"><g id="Group"><path d=" M 711.842 60.654 L 688.239 62.063 L 687.188 85.684 L 685.78 62.081 L 662.158 61.03 L 685.761 59.622 L 686.812 36 L 688.22 59.603 L 711.842 60.654 Z " fill="rgb(196,187,69)"/><path d=" M 681.637 56.095 C 685.11 59.568 685.027 62.815 681.637 66.205 C 685.027 62.815 688.466 62.924 691.747 66.205 C 688.586 63.044 688.503 59.339 691.747 56.095 C 688.503 59.339 684.99 59.448 681.637 56.095 Z " fill="rgb(196,187,69)"/></g></g></g></g></g></g></g></g><g id="star1"><g id="star2"><g id="star3"><g id="star4"><g id="star5"><g id="star4"><g id="star"><g id="Group"><path d=" M 120.684 101.654 L 97.081 103.063 L 96.03 126.684 L 94.622 103.081 L 71 102.03 L 94.603 100.622 L 95.654 77 L 97.063 100.603 L 120.684 101.654 Z " fill="rgb(196,187,69)"/><path d=" M 90.479 97.095 C 93.952 100.568 93.869 103.815 90.479 107.205 C 93.869 103.815 97.308 103.924 100.589 107.205 C 97.428 104.044 97.345 100.339 100.589 97.095 C 97.345 100.339 93.832 100.448 90.479 97.095 Z " fill="rgb(196,187,69)"/></g></g></g></g></g></g></g></g><g id="star1"><g id="star2"><g id="star3"><g id="star4"><g id="star5"><g id="star4"><g id="star"><g id="Group"><path d=" M 1052.684 363.97 L 1029.081 365.378 L 1028.03 389 L 1026.622 365.397 L 1003 364.346 L 1026.603 362.937 L 1027.654 339.316 L 1029.063 362.919 L 1052.684 363.97 Z " fill="rgb(196,187,69)"/><path d=" M 1022.479 359.411 C 1025.952 362.884 1025.869 366.131 1022.479 369.521 C 1025.869 366.131 1029.308 366.24 1032.589 369.521 C 1029.428 366.36 1029.345 362.655 1032.589 359.411 C 1029.345 362.655 1025.832 362.764 1022.479 359.411 Z " fill="rgb(196,187,69)"/></g></g></g></g></g></g></g></g><g id="star1"><g id="star2"><g id="star3"><g id="star4"><g id="star5"><g id="star4"><g id="star"><g id="Group"><path d=" M 411.684 463.654 L 388.081 465.063 L 387.03 488.684 L 385.622 465.081 L 362 464.03 L 385.603 462.622 L 386.654 439 L 388.063 462.603 L 411.684 463.654 Z " fill="rgb(196,187,69)"/><path d=" M 381.479 459.095 C 384.952 462.568 384.869 465.815 381.479 469.205 C 384.869 465.815 388.308 465.924 391.589 469.205 C 388.428 466.044 388.345 462.339 391.589 459.095 C 388.345 462.339 384.832 462.448 381.479 459.095 Z " fill="rgb(196,187,69)"/></g></g></g></g></g></g></g></g><g id="star1"><g id="star2"><g id="star3"><g id="star4"><g id="star5"><g id="star4"><g id="star"><g id="Group"><path d=" M 308.684 814.339 L 285.081 815.747 L 284.03 839.369 L 282.622 815.766 L 259 814.715 L 282.603 813.306 L 283.654 789.684 L 285.063 813.288 L 308.684 814.339 Z " fill="rgb(196,187,69)"/><path d=" M 278.479 809.78 C 281.952 813.253 281.869 816.5 278.479 819.89 C 281.869 816.5 285.308 816.609 288.589 819.89 C 285.428 816.729 285.345 813.024 288.589 809.78 C 285.345 813.024 281.832 813.133 278.479 809.78 Z " fill="rgb(196,187,69)"/></g></g></g></g></g></g></g></g><g id="star1"><g id="star2"><g id="star3"><g id="star4"><g id="star5"><g id="star4"><g id="star"><g id="Group"><path d=" M 421.684 715.812 L 398.081 717.22 L 397.03 740.842 L 395.622 717.239 L 372 716.188 L 395.603 714.78 L 396.654 691.158 L 398.063 714.761 L 421.684 715.812 Z " fill="rgb(196,187,69)"/><path d=" M 391.479 711.253 C 394.952 714.726 394.869 717.973 391.479 721.363 C 394.869 717.973 398.308 718.082 401.589 721.363 C 398.428 718.202 398.345 714.497 401.589 711.253 C 398.345 714.497 394.832 714.606 391.479 711.253 Z " fill="rgb(196,187,69)"/></g></g></g></g></g></g></g></g><g id="star1"><g id="star2"><g id="star3"><g id="star4"><g id="star5"><g id="star4"><g id="star"><g id="Group"><path d=" M 411.684 585.654 L 388.081 587.063 L 387.03 610.684 L 385.622 587.081 L 362 586.03 L 385.603 584.622 L 386.654 561 L 388.063 584.603 L 411.684 585.654 Z " fill="rgb(196,187,69)"/><path d=" M 381.479 581.095 C 384.952 584.568 384.869 587.815 381.479 591.205 C 384.869 587.815 388.308 587.924 391.589 591.205 C 388.428 588.044 388.345 584.339 391.589 581.095 C 388.345 584.339 384.832 584.448 381.479 581.095 Z " fill="rgb(196,187,69)"/></g></g></g></g></g></g></g></g><g id="star1"><g id="star2"><g id="star3"><g id="star4"><g id="star5"><g id="star4"><g id="star"><g id="Group"><path d=" M 1102.369 84.812 L 1078.766 86.22 L 1077.715 109.842 L 1076.306 86.239 L 1052.684 85.188 L 1076.288 83.78 L 1077.339 60.158 L 1078.747 83.761 L 1102.369 84.812 Z " fill="rgb(196,187,69)"/><path d=" M 1072.164 80.253 C 1075.636 83.726 1075.554 86.973 1072.164 90.363 C 1075.554 86.973 1078.993 87.082 1082.274 90.363 C 1079.112 87.202 1079.03 83.497 1082.274 80.253 C 1079.03 83.497 1075.517 83.606 1072.164 80.253 Z " fill="rgb(196,187,69)"/></g></g></g></g></g></g></g></g><g id="star1"><g id="star2"><g id="star3"><g id="star4"><g id="star5"><g id="star4"><g id="star"><g id="Group"><path d=" M 931 285.634 L 907.397 287.043 L 906.346 310.665 L 904.937 287.061 L 881.316 286.01 L 904.919 284.602 L 905.97 260.98 L 907.378 284.583 L 931 285.634 Z " fill="rgb(196,187,69)"/><path d=" M 900.795 281.075 C 904.268 284.548 904.185 287.795 900.795 291.185 C 904.185 287.795 907.624 287.904 910.905 291.185 C 907.744 288.024 907.661 284.319 910.905 281.075 C 907.661 284.319 904.148 284.428 900.795 281.075 Z " fill="rgb(196,187,69)"/></g></g></g></g></g></g></g></g><g id="star1"><g id="star2"><g id="star3"><g id="star4"><g id="star5"><g id="star4"><g id="star"><g id="Group"><path d=" M 1753 273.299 L 1729.397 274.707 L 1728.346 298.329 L 1726.937 274.726 L 1703.316 273.675 L 1726.919 272.267 L 1727.97 248.645 L 1729.378 272.248 L 1753 273.299 Z " fill="rgb(196,187,69)"/><path d=" M 1722.795 268.74 C 1726.268 272.213 1726.185 275.46 1722.795 278.85 C 1726.185 275.46 1729.624 275.569 1732.905 278.85 C 1729.744 275.689 1729.661 271.984 1732.905 268.74 C 1729.661 271.984 1726.148 272.093 1722.795 268.74 Z " fill="rgb(196,187,69)"/></g></g></g></g></g></g></g></g><g id="star1"><g id="star2"><g id="star3"><g id="star4"><g id="star5"><g id="star4"><g id="star"><g id="Group"><path d=" M 421.684 219.95 L 398.081 221.358 L 397.03 244.98 L 395.622 221.377 L 372 220.326 L 395.603 218.918 L 396.654 195.296 L 398.063 218.899 L 421.684 219.95 Z " fill="rgb(196,187,69)"/><path d=" M 391.479 215.391 C 394.952 218.864 394.869 222.111 391.479 225.501 C 394.869 222.111 398.308 222.22 401.589 225.501 C 398.428 222.34 398.345 218.635 401.589 215.391 C 398.345 218.635 394.832 218.744 391.479 215.391 Z " fill="rgb(196,187,69)"/></g></g></g></g></g></g></g></g><g id="star1"><g id="star2"><g id="star3"><g id="star4"><g id="star5"><g id="star4"><g id="star"><g id="Group"><path d=" M 1253 515.97 L 1229.397 517.378 L 1228.346 541 L 1226.937 517.397 L 1203.316 516.346 L 1226.919 514.937 L 1227.97 491.316 L 1229.378 514.919 L 1253 515.97 Z " fill="rgb(196,187,69)"/><path d=" M 1222.795 511.411 C 1226.268 514.884 1226.185 518.131 1222.795 521.521 C 1226.185 518.131 1229.624 518.24 1232.905 521.521 C 1229.744 518.36 1229.661 514.655 1232.905 511.411 C 1229.661 514.655 1226.148 514.764 1222.795 511.411 Z " fill="rgb(196,187,69)"/></g></g></g></g></g></g></g></g><g id="star1"><g id="star2"><g id="star3"><g id="star4"><g id="star5"><g id="star4"><g id="star"><g id="Group"><path d=" M 1456.842 511.654 L 1433.239 513.063 L 1432.188 536.684 L 1430.78 513.081 L 1407.158 512.03 L 1430.761 510.622 L 1431.812 487 L 1433.22 510.603 L 1456.842 511.654 Z " fill="rgb(196,187,69)"/><path d=" M 1426.637 507.095 C 1430.11 510.568 1430.027 513.815 1426.637 517.205 C 1430.027 513.815 1433.466 513.924 1436.747 517.205 C 1433.586 514.044 1433.503 510.339 1436.747 507.095 C 1433.503 510.339 1429.99 510.448 1426.637 507.095 Z " fill="rgb(196,187,69)"/></g></g></g></g></g></g></g></g><g id="star1"><g id="star2"><g id="star3"><g id="star4"><g id="star5"><g id="star4"><g id="star"><g id="Group"><path d=" M 1515.684 1021.497 L 1492.081 1022.905 L 1491.03 1046.527 L 1489.622 1022.923 L 1466 1021.872 L 1489.603 1020.464 L 1490.654 996.842 L 1492.063 1020.446 L 1515.684 1021.497 Z " fill="rgb(196,187,69)"/><path d=" M 1485.479 1016.937 C 1488.952 1020.41 1488.869 1023.658 1485.479 1027.048 C 1488.869 1023.658 1492.308 1023.767 1495.589 1027.048 C 1492.428 1023.886 1492.345 1020.182 1495.589 1016.937 C 1492.345 1020.182 1488.832 1020.291 1485.479 1016.937 Z " fill="rgb(196,187,69)"/></g></g></g></g></g></g></g></g><g id="star1"><g id="star2"><g id="star3"><g id="star4"><g id="star5"><g id="star4"><g id="star"><g id="Group"><path d=" M 698.369 1027.654 L 674.766 1029.063 L 673.715 1052.684 L 672.306 1029.081 L 648.684 1028.03 L 672.288 1026.622 L 673.339 1003 L 674.747 1026.603 L 698.369 1027.654 Z " fill="rgb(196,187,69)"/><path d=" M 668.164 1023.095 C 671.636 1026.568 671.554 1029.815 668.164 1033.205 C 671.554 1029.815 674.993 1029.924 678.274 1033.205 C 675.112 1030.044 675.03 1026.339 678.274 1023.095 C 675.03 1026.339 671.517 1026.448 668.164 1023.095 Z " fill="rgb(196,187,69)"/></g></g></g></g></g></g></g></g></g></svg>