<?xml version="1.0" standalone="no"?><!-- Generator: Gravit.io --><svg xmlns="http://www.w3.org/2000/svg" xmlns:xlink="http://www.w3.org/1999/xlink" style="isolation:isolate" viewBox="0 0 600 800" width="600" height="800"><defs><clipPath id="_clipPath_IMgnIs2lhy7cefeQgdAfddtGXrx1SYup"><rect width="600" height="800"/></clipPath></defs><g clip-path="url(#_clipPath_IMgnIs2lhy7cefeQgdAfddtGXrx1SYup)"><g id="star4"><g id="star5"><g id="star4"><g id="star"><g id="Group"><path d=" M 237 650.422 L 170.341 654.399 L 167.373 721.111 L 163.396 654.452 L 96.684 651.483 L 163.343 647.506 L 166.312 580.795 L 170.289 647.454 L 237 650.422 Z " fill="rgb(196,187,69)"/><path d=" M 151.696 637.547 C 161.504 647.355 161.27 656.525 151.696 666.099 C 161.27 656.525 170.982 656.833 180.248 666.099 C 171.321 657.171 171.087 646.708 180.248 637.547 C 171.087 646.708 161.166 647.016 151.696 637.547 Z " fill="rgb(196,187,69)"/></g></g></g></g></g><g id="star3"><g id="star4"><g id="star5"><g id="star4"><g id="star"><g id="Group"><path d=" M 59.316 642.235 L 15.46 644.851 L 13.507 688.742 L 10.89 644.886 L -33 642.933 L 10.856 640.316 L 12.809 596.426 L 15.425 640.282 L 59.316 642.235 Z " fill="rgb(196,187,69)"/><path d=" M 3.193 633.764 C 9.646 640.217 9.492 646.25 3.193 652.549 C 9.492 646.25 15.881 646.452 21.978 652.549 C 16.104 646.675 15.95 639.791 21.978 633.764 C 15.95 639.791 9.423 639.994 3.193 633.764 Z " fill="rgb(196,187,69)"/></g></g></g></g></g></g><g id="star3"><g id="star4"><g id="star5"><g id="star4"><g id="star"><g id="Group"><path d=" M 219.473 353.919 L 175.618 356.536 L 173.665 400.426 L 171.048 356.57 L 127.158 354.617 L 171.014 352.001 L 172.966 308.111 L 175.583 351.966 L 219.473 353.919 Z " fill="rgb(196,187,69)"/><path d=" M 163.351 345.448 C 169.803 351.901 169.65 357.934 163.351 364.233 C 169.65 357.934 176.039 358.137 182.136 364.233 C 176.262 358.36 176.108 351.476 182.136 345.448 C 176.108 351.476 169.581 351.678 163.351 345.448 Z " fill="rgb(196,187,69)"/></g></g></g></g></g></g><g id="star2"><g id="star3"><g id="star4"><g id="star5"><g id="star4"><g id="star"><g id="Group"><path d=" M 129.527 715.178 L 98.322 717.039 L 96.933 748.268 L 95.071 717.064 L 63.842 715.674 L 95.047 713.813 L 96.436 682.584 L 98.298 713.788 L 129.527 715.178 Z " fill="rgb(196,187,69)"/><path d=" M 89.594 709.15 C 94.186 713.742 94.076 718.035 89.594 722.516 C 94.076 718.035 98.622 718.179 102.96 722.516 C 98.781 718.337 98.671 713.439 102.96 709.15 C 98.671 713.439 94.027 713.583 89.594 709.15 Z " fill="rgb(196,187,69)"/></g></g></g></g></g></g></g><g id="star2"><g id="star3"><g id="star4"><g id="star5"><g id="star4"><g id="star"><g id="Group"><path d=" M 192.053 405.335 L 160.849 407.197 L 159.46 438.426 L 157.598 407.222 L 126.369 405.832 L 157.573 403.971 L 158.963 372.742 L 160.824 403.946 L 192.053 405.335 Z " fill="rgb(196,187,69)"/><path d=" M 152.121 399.308 C 156.712 403.9 156.603 408.192 152.121 412.674 C 156.603 408.192 161.149 408.336 165.487 412.674 C 161.308 408.495 161.198 403.597 165.487 399.308 C 161.198 403.597 156.554 403.741 152.121 399.308 Z " fill="rgb(196,187,69)"/></g></g></g></g></g></g></g><g id="star2"><g id="star3"><g id="star4"><g id="star5"><g id="star4"><g id="star"><g id="Group"><path d=" M 232.527 780.862 L 201.322 782.724 L 199.933 813.953 L 198.071 782.748 L 166.842 781.359 L 198.047 779.497 L 199.436 748.268 L 201.298 779.473 L 232.527 780.862 Z " fill="rgb(196,187,69)"/><path d=" M 192.594 774.835 C 197.186 779.426 197.076 783.719 192.594 788.201 C 197.076 783.719 201.622 783.863 205.96 788.201 C 201.781 784.022 201.671 779.124 205.96 774.835 C 201.671 779.124 197.027 779.268 192.594 774.835 Z " fill="rgb(196,187,69)"/></g></g></g></g></g></g></g><g id="star2"><g id="star3"><g id="star4"><g id="star5"><g id="star4"><g id="star"><g id="Group"><path d=" M 363.527 575.661 L 332.322 577.523 L 330.933 608.752 L 329.071 577.547 L 297.842 576.158 L 329.047 574.296 L 330.436 543.067 L 332.298 574.271 L 363.527 575.661 Z " fill="rgb(196,187,69)"/><path d=" M 323.594 569.634 C 328.186 574.225 328.076 578.518 323.594 583 C 328.076 578.518 332.622 578.662 336.96 583 C 332.781 578.82 332.671 573.922 336.96 569.634 C 332.671 573.922 328.027 574.067 323.594 569.634 Z " fill="rgb(196,187,69)"/></g></g></g></g></g></g></g><g id="star2"><g id="star3"><g id="star4"><g id="star5"><g id="star4"><g id="star"><g id="Group"><path d=" M 515.842 801.326 L 484.638 803.187 L 483.248 834.416 L 481.387 803.212 L 450.158 801.822 L 481.362 799.961 L 482.752 768.732 L 484.613 799.936 L 515.842 801.326 Z " fill="rgb(196,187,69)"/><path d=" M 475.91 795.298 C 480.501 799.89 480.392 804.182 475.91 808.664 C 480.392 804.182 484.938 804.326 489.276 808.664 C 485.096 804.485 484.987 799.587 489.276 795.298 C 484.987 799.587 480.343 799.731 475.91 795.298 Z " fill="rgb(196,187,69)"/></g></g></g></g></g></g></g><g id="star2"><g id="star3"><g id="star4"><g id="star5"><g id="star4"><g id="star"><g id="Group"><path d=" M 260 495.178 L 228.796 497.039 L 227.406 528.268 L 225.544 497.064 L 194.316 495.674 L 225.52 493.813 L 226.909 462.584 L 228.771 493.788 L 260 495.178 Z " fill="rgb(196,187,69)"/><path d=" M 220.067 489.15 C 224.659 493.742 224.549 498.035 220.067 502.516 C 224.549 498.035 229.096 498.179 233.434 502.516 C 229.254 498.337 229.145 493.439 233.434 489.15 C 229.145 493.439 224.5 493.583 220.067 489.15 Z " fill="rgb(196,187,69)"/></g></g></g></g></g></g></g><g id="star2"><g id="star3"><g id="star4"><g id="star5"><g id="star4"><g id="star"><g id="Group"><path d=" M 125 392.335 L 93.796 394.197 L 92.406 425.426 L 90.544 394.222 L 59.316 392.832 L 90.52 390.971 L 91.909 359.742 L 93.771 390.946 L 125 392.335 Z " fill="rgb(196,187,69)"/><path d=" M 85.067 386.308 C 89.659 390.9 89.549 395.192 85.067 399.674 C 89.549 395.192 94.096 395.336 98.434 399.674 C 94.254 395.495 94.145 390.597 98.434 386.308 C 94.145 390.597 89.5 390.741 85.067 386.308 Z " fill="rgb(196,187,69)"/></g></g></g></g></g></g></g><g id="star1"><g id="star2"><g id="star3"><g id="star4"><g id="star5"><g id="star4"><g id="star"><g id="Group"><path d=" M 59.316 175.396 L 35.712 176.804 L 34.661 200.426 L 33.253 176.823 L 9.631 175.772 L 33.234 174.364 L 34.285 150.742 L 35.694 174.345 L 59.316 175.396 Z " fill="rgb(196,187,69)"/><path d=" M 29.11 170.837 C 32.583 174.31 32.5 177.557 29.11 180.947 C 32.5 177.557 35.939 177.666 39.22 180.947 C 36.059 177.786 35.976 174.081 39.22 170.837 C 35.976 174.081 32.463 174.19 29.11 170.837 Z " fill="rgb(196,187,69)"/></g></g></g></g></g></g></g></g><g id="star1"><g id="star2"><g id="star3"><g id="star4"><g id="star5"><g id="star4"><g id="star"><g id="Group"><path d=" M 514.842 676.554 L 491.239 677.962 L 490.188 701.584 L 488.78 677.981 L 465.158 676.93 L 488.761 675.521 L 489.812 651.899 L 491.22 675.503 L 514.842 676.554 Z " fill="rgb(196,187,69)"/><path d=" M 484.637 671.995 C 488.11 675.468 488.027 678.715 484.637 682.105 C 488.027 678.715 491.466 678.824 494.747 682.105 C 491.586 678.944 491.503 675.239 494.747 671.995 C 491.503 675.239 487.99 675.348 484.637 671.995 Z " fill="rgb(196,187,69)"/></g></g></g></g></g></g></g></g><g id="star1"><g id="star2"><g id="star3"><g id="star4"><g id="star5"><g id="star4"><g id="star"><g id="Group"><path d=" M 146.369 225.08 L 122.766 226.489 L 121.715 250.111 L 120.306 226.507 L 96.684 225.456 L 120.288 224.048 L 121.339 200.426 L 122.747 224.029 L 146.369 225.08 Z " fill="rgb(196,187,69)"/><path d=" M 116.164 220.521 C 119.636 223.994 119.554 227.241 116.164 230.632 C 119.554 227.241 122.993 227.35 126.274 230.632 C 123.112 227.47 123.03 223.765 126.274 220.521 C 123.03 223.765 119.517 223.874 116.164 220.521 Z " fill="rgb(196,187,69)"/></g></g></g></g></g></g></g></g><g id="star1"><g id="star2"><g id="star3"><g id="star4"><g id="star5"><g id="star4"><g id="star"><g id="Group"><path d=" M 596.842 608.564 L 573.239 609.972 L 572.188 633.594 L 570.78 609.991 L 547.158 608.939 L 570.761 607.531 L 571.812 583.909 L 573.22 607.513 L 596.842 608.564 Z " fill="rgb(196,187,69)"/><path d=" M 566.637 604.005 C 570.11 607.478 570.027 610.725 566.637 614.115 C 570.027 610.725 573.466 610.834 576.747 614.115 C 573.586 610.953 573.503 607.249 576.747 604.005 C 573.503 607.249 569.99 607.358 566.637 604.005 Z " fill="rgb(196,187,69)"/></g></g></g></g></g></g></g></g><g id="star1"><g id="star2"><g id="star3"><g id="star4"><g id="star5"><g id="star4"><g id="star"><g id="Group"><path d=" M 152 143.396 L 128.397 144.804 L 127.346 168.426 L 125.937 144.823 L 102.316 143.772 L 125.919 142.364 L 126.97 118.742 L 128.378 142.345 L 152 143.396 Z " fill="rgb(196,187,69)"/><path d=" M 121.795 138.837 C 125.268 142.31 125.185 145.557 121.795 148.947 C 125.185 145.557 128.624 145.666 131.905 148.947 C 128.744 145.786 128.661 142.081 131.905 138.837 C 128.661 142.081 125.148 142.19 121.795 138.837 Z " fill="rgb(196,187,69)"/></g></g></g></g></g></g></g></g><g id="star1"><g id="star2"><g id="star3"><g id="star4"><g id="star5"><g id="star4"><g id="star"><g id="Group"><path d=" M 413.211 696.08 L 389.608 697.489 L 388.557 721.111 L 387.149 697.507 L 363.527 696.456 L 387.13 695.048 L 388.181 671.426 L 389.589 695.029 L 413.211 696.08 Z " fill="rgb(196,187,69)"/><path d=" M 383.006 691.521 C 386.479 694.994 386.396 698.241 383.006 701.632 C 386.396 698.241 389.835 698.35 393.116 701.632 C 389.955 698.47 389.872 694.765 393.116 691.521 C 389.872 694.765 386.359 694.874 383.006 691.521 Z " fill="rgb(196,187,69)"/></g></g></g></g></g></g></g></g><g id="star1"><g id="star2"><g id="star3"><g id="star4"><g id="star5"><g id="star4"><g id="star"><g id="Group"><path d=" M 322.684 511.238 L 299.081 512.646 L 298.03 536.268 L 296.622 512.665 L 273 511.614 L 296.603 510.206 L 297.654 486.584 L 299.063 510.187 L 322.684 511.238 Z " fill="rgb(196,187,69)"/><path d=" M 292.479 506.679 C 295.952 510.152 295.869 513.399 292.479 516.789 C 295.869 513.399 299.308 513.508 302.589 516.789 C 299.428 513.628 299.345 509.923 302.589 506.679 C 299.345 509.923 295.832 510.032 292.479 506.679 Z " fill="rgb(196,187,69)"/></g></g></g></g></g></g></g></g><g id="star1"><g id="star2"><g id="star3"><g id="star4"><g id="star5"><g id="star4"><g id="star"><g id="Group"><path d=" M 613.684 740.08 L 590.081 741.489 L 589.03 765.111 L 587.622 741.507 L 564 740.456 L 587.603 739.048 L 588.654 715.426 L 590.063 739.029 L 613.684 740.08 Z " fill="rgb(196,187,69)"/><path d=" M 583.479 735.521 C 586.952 738.994 586.869 742.241 583.479 745.632 C 586.869 742.241 590.308 742.35 593.589 745.632 C 590.428 742.47 590.345 738.765 593.589 735.521 C 590.345 738.765 586.832 738.874 583.479 735.521 Z " fill="rgb(196,187,69)"/></g></g></g></g></g></g></g></g><g id="star1"><g id="star2"><g id="star3"><g id="star4"><g id="star5"><g id="star4"><g id="star"><g id="Group"><path d=" M 55.158 294.238 L 31.554 295.646 L 30.503 319.268 L 29.095 295.665 L 5.473 294.614 L 29.077 293.206 L 30.128 269.584 L 31.536 293.187 L 55.158 294.238 Z " fill="rgb(196,187,69)"/><path d=" M 24.952 289.679 C 28.425 293.152 28.342 296.399 24.952 299.789 C 28.342 296.399 31.781 296.508 35.063 299.789 C 31.901 296.628 31.818 292.923 35.063 289.679 C 31.818 292.923 28.305 293.032 24.952 289.679 Z " fill="rgb(196,187,69)"/></g></g></g></g></g></g></g></g><g id="star1"><g id="star2"><g id="star3"><g id="star4"><g id="star5"><g id="star4"><g id="star"><g id="Group"><path d=" M 30.316 65.061 L 6.712 66.469 L 5.661 90.091 L 4.253 66.487 L -19.369 65.436 L 4.234 64.028 L 5.285 40.406 L 6.694 64.009 L 30.316 65.061 Z " fill="rgb(196,187,69)"/><path d=" M 0.11 60.501 C 3.583 63.974 3.5 67.221 0.11 70.612 C 3.5 67.221 6.939 67.33 10.22 70.612 C 7.059 67.45 6.976 63.745 10.22 60.501 C 6.976 63.745 3.463 63.854 0.11 60.501 Z " fill="rgb(196,187,69)"/></g></g></g></g></g></g></g></g><g id="star1"><g id="star2"><g id="star3"><g id="star4"><g id="star5"><g id="star4"><g id="star"><g id="Group"><path d=" M 322.684 768.544 L 299.081 769.952 L 298.03 793.574 L 296.622 769.971 L 273 768.92 L 296.603 767.511 L 297.654 743.889 L 299.063 767.493 L 322.684 768.544 Z " fill="rgb(196,187,69)"/><path d=" M 292.479 763.985 C 295.952 767.458 295.869 770.705 292.479 774.095 C 295.869 770.705 299.308 770.814 302.589 774.095 C 299.428 770.934 299.345 767.229 302.589 763.985 C 299.345 767.229 295.832 767.338 292.479 763.985 Z " fill="rgb(196,187,69)"/></g></g></g></g></g></g></g></g></g></svg>