<?xml version="1.0" standalone="no"?><!-- Generator: Gravit.io --><svg xmlns="http://www.w3.org/2000/svg" xmlns:xlink="http://www.w3.org/1999/xlink" style="isolation:isolate" viewBox="0 0 600 1080" width="600" height="1080"><defs><clipPath id="_clipPath_SL6Gbjf4kiO2eMG3rl15Gm2E5DvrtKzk"><rect width="600" height="1080"/></clipPath></defs><g clip-path="url(#_clipPath_SL6Gbjf4kiO2eMG3rl15Gm2E5DvrtKzk)"><g id="star4"><g id="star5"><g id="star4"/></g></g><g id="star3"><g id="star4"><g id="star5"><g id="star4"><g id="star"><g id="Group"><path d=" M 17.402 1050.685 L 49.103 1048.794 L 50.515 1017.067 L 52.406 1048.769 L 84.133 1050.18 L 52.431 1052.072 L 51.02 1083.798 L 49.128 1052.097 L 17.402 1050.685 Z " fill="rgb(255,255,255)"/><path d=" M 57.971 1056.808 C 53.306 1052.144 53.417 1047.783 57.971 1043.229 C 53.417 1047.783 48.798 1047.636 44.392 1043.229 C 48.637 1047.475 48.749 1052.451 44.392 1056.808 C 48.749 1052.451 53.467 1052.305 57.971 1056.808 Z " fill="rgb(255,255,255)"/></g></g></g></g></g></g><g id="star3"><g id="star4"><g id="star5"><g id="star4"><g id="star"><g id="Group"><path d=" M -42.139 1007.542 L -10.438 1005.65 L -9.026 973.924 L -7.135 1005.625 L 24.592 1007.037 L -7.11 1008.928 L -8.521 1040.655 L -10.413 1008.953 L -42.139 1007.542 Z " fill="rgb(255,255,255)"/><path d=" M -1.57 1013.665 C -6.235 1009 -6.124 1004.639 -1.57 1000.086 C -6.124 1004.639 -10.742 1004.493 -15.149 1000.086 C -10.903 1004.332 -10.792 1009.308 -15.149 1013.665 C -10.792 1009.308 -6.074 1009.161 -1.57 1013.665 Z " fill="rgb(255,255,255)"/></g></g></g></g></g></g><g id="star3"><g id="star4"><g id="star5"><g id="star4"><g id="star"><g id="Group"><path d=" M 118.488 138.06 L 150.189 136.169 L 151.601 104.443 L 153.492 136.144 L 185.218 137.556 L 153.517 139.447 L 152.105 171.174 L 150.214 139.472 L 118.488 138.06 Z " fill="rgb(255,255,255)"/><path d=" M 159.056 144.184 C 154.392 139.519 154.503 135.158 159.056 130.605 C 154.503 135.158 149.884 135.012 145.477 130.605 C 149.723 134.851 149.834 139.827 145.477 144.184 C 149.834 139.827 154.553 139.68 159.056 144.184 Z " fill="rgb(255,255,255)"/></g></g></g></g></g></g><g id="star3"><g id="star4"><g id="star5"><g id="star4"><g id="star"><g id="Group"><path d=" M 2.717 346.471 L 34.418 344.58 L 35.83 312.853 L 37.721 344.555 L 69.448 345.966 L 37.746 347.858 L 36.334 379.584 L 34.443 347.883 L 2.717 346.471 Z " fill="rgb(255,255,255)"/><path d=" M 43.285 352.594 C 38.621 347.93 38.732 343.569 43.285 339.015 C 38.732 343.569 34.113 343.422 29.706 339.015 C 33.952 343.261 34.064 348.237 29.706 352.594 C 34.064 348.237 38.782 348.091 43.285 352.594 Z " fill="rgb(255,255,255)"/></g></g></g></g></g></g><g id="star2"><g id="star3"><g id="star4"><g id="star5"><g id="star4"><g id="star"><g id="Group"><path d=" M 453.131 877.83 L 475.687 876.485 L 476.692 853.911 L 478.038 876.467 L 500.612 877.471 L 478.055 878.817 L 477.051 901.391 L 475.705 878.835 L 453.131 877.83 Z " fill="rgb(255,255,255)"/><path d=" M 481.997 882.187 C 478.678 878.868 478.757 875.765 481.997 872.526 C 478.757 875.765 475.47 875.661 472.335 872.526 C 475.356 875.547 475.435 879.087 472.335 882.187 C 475.435 879.087 478.792 878.983 481.997 882.187 Z " fill="rgb(255,255,255)"/></g></g></g></g></g></g></g><g id="star2"><g id="star3"><g id="star4"><g id="star5"><g id="star4"><g id="star"><g id="Group"><path d=" M -26.578 606.032 L -4.022 604.686 L -3.018 582.112 L -1.672 604.668 L 20.902 605.673 L -1.654 607.018 L -2.659 629.592 L -4.004 607.036 L -26.578 606.032 Z " fill="rgb(255,255,255)"/><path d=" M 2.287 610.389 C -1.032 607.07 -0.953 603.967 2.287 600.727 C -0.953 603.967 -4.239 603.863 -7.375 600.727 C -4.353 603.748 -4.274 607.288 -7.375 610.389 C -4.274 607.288 -0.917 607.184 2.287 610.389 Z " fill="rgb(255,255,255)"/></g></g></g></g></g></g></g><g id="star2"><g id="star3"><g id="star4"><g id="star5"><g id="star4"><g id="star"><g id="Group"><path d=" M 400.477 968.321 L 423.033 966.975 L 424.037 944.401 L 425.383 966.957 L 447.957 967.962 L 425.401 969.307 L 424.396 991.881 L 423.051 969.325 L 400.477 968.321 Z " fill="rgb(255,255,255)"/><path d=" M 429.342 972.677 C 426.023 969.359 426.102 966.256 429.342 963.016 C 426.102 966.256 422.816 966.151 419.68 963.016 C 422.702 966.037 422.781 969.577 419.68 972.677 C 422.781 969.577 426.138 969.473 429.342 972.677 Z " fill="rgb(255,255,255)"/></g></g></g></g></g></g></g><g id="star2"><g id="star3"><g id="star4"><g id="star5"><g id="star4"><g id="star"><g id="Group"><path d=" M 20.902 584.232 L 43.458 582.886 L 44.463 560.312 L 45.809 582.869 L 68.383 583.873 L 45.826 585.219 L 44.822 607.793 L 43.476 585.236 L 20.902 584.232 Z " fill="rgb(255,255,255)"/><path d=" M 49.768 588.589 C 46.449 585.27 46.528 582.167 49.768 578.927 C 46.528 582.167 43.241 582.063 40.106 578.927 C 43.127 581.948 43.206 585.489 40.106 588.589 C 43.206 585.489 46.563 585.385 49.768 588.589 Z " fill="rgb(255,255,255)"/></g></g></g></g></g></g></g><g id="star2"><g id="star3"><g id="star4"><g id="star5"><g id="star4"><g id="star"><g id="Group"><path d=" M 96.307 914.335 L 118.863 912.989 L 119.868 890.415 L 121.214 912.971 L 143.788 913.975 L 121.231 915.321 L 120.227 937.895 L 118.881 915.339 L 96.307 914.335 Z " fill="rgb(255,255,255)"/><path d=" M 125.173 918.691 C 121.854 915.373 121.933 912.269 125.173 909.03 C 121.933 912.269 118.647 912.165 115.511 909.03 C 118.532 912.051 118.611 915.591 115.511 918.691 C 118.611 915.591 121.968 915.487 125.173 918.691 Z " fill="rgb(255,255,255)"/></g></g></g></g></g></g></g><g id="star2"><g id="star3"><g id="star4"><g id="star5"><g id="star4"><g id="star"><g id="Group"><path d=" M 400.477 1051.939 L 423.033 1050.593 L 424.037 1028.019 L 425.383 1050.575 L 447.957 1051.58 L 425.401 1052.926 L 424.396 1075.5 L 423.051 1052.943 L 400.477 1051.939 Z " fill="rgb(255,255,255)"/><path d=" M 429.342 1056.296 C 426.023 1052.977 426.102 1049.874 429.342 1046.634 C 426.102 1049.874 422.816 1049.77 419.68 1046.634 C 422.702 1049.655 422.781 1053.196 419.68 1056.296 C 422.781 1053.196 426.138 1053.091 429.342 1056.296 Z " fill="rgb(255,255,255)"/></g></g></g></g></g></g></g><g id="star2"><g id="star3"><g id="star4"><g id="star5"><g id="star4"><g id="star"><g id="Group"><path d=" M -26.578 244.361 L -4.022 243.016 L -3.018 220.442 L -1.672 242.998 L 20.902 244.002 L -1.654 245.348 L -2.659 267.922 L -4.004 245.366 L -26.578 244.361 Z " fill="rgb(255,255,255)"/><path d=" M 2.287 248.718 C -1.032 245.399 -0.953 242.296 2.287 239.057 C -0.953 242.296 -4.239 242.192 -7.375 239.057 C -4.353 242.078 -4.274 245.618 -7.375 248.718 C -4.274 245.618 -0.917 245.514 2.287 248.718 Z " fill="rgb(255,255,255)"/></g></g></g></g></g></g></g><g id="star2"><g id="star3"><g id="star4"><g id="star5"><g id="star4"><g id="star"><g id="Group"><path d=" M 72.567 1057.346 L 95.123 1056 L 96.128 1033.426 L 97.473 1055.982 L 120.047 1056.987 L 97.491 1058.333 L 96.487 1080.907 L 95.141 1058.35 L 72.567 1057.346 Z " fill="rgb(255,255,255)"/><path d=" M 101.432 1061.703 C 98.114 1058.384 98.193 1055.281 101.432 1052.041 C 98.193 1055.281 94.906 1055.177 91.771 1052.041 C 94.792 1055.062 94.871 1058.603 91.771 1061.703 C 94.871 1058.603 98.228 1058.498 101.432 1061.703 Z " fill="rgb(255,255,255)"/></g></g></g></g></g></g></g><g id="star2"><g id="star3"><g id="star4"><g id="star5"><g id="star4"><g id="star"><g id="Group"><path d=" M 71.007 318.702 L 93.563 317.356 L 94.568 294.782 L 95.914 317.338 L 118.488 318.342 L 95.931 319.688 L 94.927 342.262 L 93.581 319.706 L 71.007 318.702 Z " fill="rgb(255,255,255)"/><path d=" M 99.873 323.058 C 96.554 319.74 96.633 316.636 99.873 313.397 C 96.633 316.636 93.347 316.532 90.211 313.397 C 93.232 316.418 93.311 319.958 90.211 323.058 C 93.311 319.958 96.668 319.854 99.873 323.058 Z " fill="rgb(255,255,255)"/></g></g></g></g></g></g></g><g id="star1"><g id="star2"><g id="star3"><g id="star4"><g id="star5"><g id="star4"><g id="star"><g id="Group"><path d=" M 213.866 845.92 L 230.928 844.902 L 231.688 827.827 L 232.705 844.889 L 249.781 845.648 L 232.719 846.666 L 231.959 863.741 L 230.941 846.68 L 213.866 845.92 Z " fill="rgb(255,255,255)"/><path d=" M 235.7 849.216 C 233.19 846.705 233.25 844.358 235.7 841.907 C 233.25 844.358 230.764 844.279 228.392 841.907 C 230.677 844.192 230.737 846.871 228.392 849.216 C 230.737 846.871 233.276 846.792 235.7 849.216 Z " fill="rgb(255,255,255)"/></g></g></g></g></g></g></g></g><g id="star1"><g id="star2"><g id="star3"><g id="star4"><g id="star5"><g id="star4"><g id="star"><g id="Group"><path d=" M 54.61 836.089 L 71.671 835.071 L 72.431 817.996 L 73.449 835.058 L 90.524 835.817 L 73.463 836.835 L 72.703 853.911 L 71.685 836.849 L 54.61 836.089 Z " fill="rgb(255,255,255)"/><path d=" M 76.444 839.385 C 73.933 836.874 73.993 834.527 76.444 832.076 C 73.993 834.527 71.507 834.448 69.136 832.076 C 71.421 834.362 71.481 837.04 69.136 839.385 C 71.481 837.04 74.02 836.961 76.444 839.385 Z " fill="rgb(255,255,255)"/></g></g></g></g></g></g></g></g><g id="star1"><g id="star2"><g id="star3"><g id="star4"><g id="star5"><g id="star4"/></g></g></g></g></g><g id="star1"><g id="star2"><g id="star3"><g id="star4"><g id="star5"><g id="star4"><g id="star"><g id="Group"><path d=" M 51.49 498.649 L 68.552 497.631 L 69.312 480.556 L 70.33 497.617 L 87.405 498.377 L 70.343 499.395 L 69.583 516.47 L 68.565 499.409 L 51.49 498.649 Z " fill="rgb(255,255,255)"/><path d=" M 73.324 501.944 C 70.814 499.434 70.874 497.087 73.324 494.636 C 70.874 497.087 68.388 497.008 66.016 494.636 C 68.301 496.921 68.361 499.599 66.016 501.944 C 68.361 499.599 70.9 499.521 73.324 501.944 Z " fill="rgb(255,255,255)"/></g></g></g></g></g></g></g></g><g id="star1"><g id="star2"><g id="star3"><g id="star4"><g id="star5"><g id="star4"><g id="star"><g id="Group"><path d=" M 547.33 899.472 L 564.392 898.454 L 565.152 881.379 L 566.17 898.441 L 583.245 899.201 L 566.183 900.219 L 565.424 917.294 L 564.406 900.232 L 547.33 899.472 Z " fill="rgb(255,255,255)"/><path d=" M 569.165 902.768 C 566.654 900.257 566.714 897.91 569.165 895.46 C 566.714 897.91 564.228 897.831 561.856 895.46 C 564.142 897.745 564.201 900.423 561.856 902.768 C 564.201 900.423 566.741 900.344 569.165 902.768 Z " fill="rgb(255,255,255)"/></g></g></g></g></g></g></g></g><g id="star1"><g id="star2"><g id="star3"><g id="star4"><g id="star5"><g id="star4"><g id="star"><g id="Group"><path d=" M 305.106 890.551 L 322.168 889.533 L 322.928 872.457 L 323.946 889.519 L 341.021 890.279 L 323.959 891.297 L 323.199 908.372 L 322.181 891.31 L 305.106 890.551 Z " fill="rgb(255,255,255)"/><path d=" M 326.94 893.846 C 324.43 891.336 324.49 888.989 326.94 886.538 C 324.49 888.989 322.004 888.91 319.632 886.538 C 321.917 888.823 321.977 891.501 319.632 893.846 C 321.977 891.501 324.517 891.422 326.94 893.846 Z " fill="rgb(255,255,255)"/></g></g></g></g></g></g></g></g><g id="star1"><g id="star2"><g id="star3"><g id="star4"><g id="star5"><g id="star4"><g id="star"><g id="Group"><path d=" M 297.87 926.579 L 314.932 925.561 L 315.691 908.486 L 316.709 925.548 L 333.785 926.308 L 316.723 927.326 L 315.963 944.401 L 314.945 927.339 L 297.87 926.579 Z " fill="rgb(255,255,255)"/><path d=" M 319.704 929.875 C 317.194 927.364 317.253 925.017 319.704 922.567 C 317.253 925.017 314.768 924.939 312.396 922.567 C 314.681 924.852 314.741 927.53 312.396 929.875 C 314.741 927.53 317.28 927.451 319.704 929.875 Z " fill="rgb(255,255,255)"/></g></g></g></g></g></g></g></g><g id="star1"><g id="star2"><g id="star3"><g id="star4"><g id="star5"><g id="star4"><g id="star"><g id="Group"><path d=" M 224.595 961.771 L 241.657 960.753 L 242.416 943.678 L 243.434 960.74 L 260.509 961.5 L 243.448 962.517 L 242.688 979.593 L 241.67 962.531 L 224.595 961.771 Z " fill="rgb(255,255,255)"/><path d=" M 246.429 965.067 C 243.918 962.556 243.978 960.209 246.429 957.759 C 243.978 960.209 241.492 960.13 239.121 957.759 C 241.406 960.044 241.466 962.722 239.121 965.067 C 241.466 962.722 244.005 962.643 246.429 965.067 Z " fill="rgb(255,255,255)"/></g></g></g></g></g></g></g></g><g id="star1"><g id="star2"><g id="star3"><g id="star4"><g id="star5"><g id="star4"><g id="star"><g id="Group"><path d=" M 231.823 1055.856 L 248.885 1054.838 L 249.645 1037.763 L 250.663 1054.825 L 267.738 1055.585 L 250.676 1056.603 L 249.916 1073.678 L 248.899 1056.616 L 231.823 1055.856 Z " fill="rgb(255,255,255)"/><path d=" M 253.657 1059.152 C 251.147 1056.642 251.207 1054.294 253.657 1051.844 C 251.207 1054.294 248.721 1054.216 246.349 1051.844 C 248.634 1054.129 248.694 1056.807 246.349 1059.152 C 248.694 1056.807 251.234 1056.728 253.657 1059.152 Z " fill="rgb(255,255,255)"/></g></g></g></g></g></g></g></g><g id="star1"><g id="star2"><g id="star3"><g id="star4"><g id="star5"><g id="star4"><g id="star"><g id="Group"><path d=" M 15.575 700.44 L 32.637 699.422 L 33.397 682.346 L 34.415 699.408 L 51.49 700.168 L 34.428 701.186 L 33.669 718.261 L 32.651 701.199 L 15.575 700.44 Z " fill="rgb(255,255,255)"/><path d=" M 37.41 703.735 C 34.899 701.225 34.959 698.878 37.41 696.427 C 34.959 698.878 32.473 698.799 30.101 696.427 C 32.387 698.712 32.446 701.39 30.101 703.735 C 32.446 701.39 34.986 701.311 37.41 703.735 Z " fill="rgb(255,255,255)"/></g></g></g></g></g></g></g></g><g id="star1"><g id="star2"><g id="star3"><g id="star4"><g id="star5"><g id="star4"><g id="star"/></g></g></g></g></g></g><g id="star1"><g id="star2"><g id="star3"><g id="star4"><g id="star5"><g id="star4"><g id="star"><g id="Group"><path d=" M 540.102 1075.635 L 557.164 1074.617 L 557.923 1057.542 L 558.941 1074.604 L 576.017 1075.364 L 558.955 1076.382 L 558.195 1093.457 L 557.177 1076.395 L 540.102 1075.635 Z " fill="rgb(255,255,255)"/><path d=" M 561.936 1078.931 C 559.426 1076.42 559.485 1074.073 561.936 1071.623 C 559.485 1074.073 557 1073.994 554.628 1071.623 C 556.913 1073.908 556.973 1076.586 554.628 1078.931 C 556.973 1076.586 559.512 1076.507 561.936 1078.931 Z " fill="rgb(255,255,255)"/></g></g></g></g></g></g></g></g><g id="star1"><g id="star2"><g id="star3"><g id="star4"><g id="star5"><g id="star4"><g id="star"><g id="Group"><path d=" M 24.592 736.354 L 41.654 735.336 L 42.413 718.261 L 43.431 735.323 L 60.507 736.083 L 43.445 737.101 L 42.685 754.176 L 41.667 737.114 L 24.592 736.354 Z " fill="rgb(255,255,255)"/><path d=" M 46.426 739.65 C 43.916 737.139 43.975 734.792 46.426 732.342 C 43.975 734.792 41.49 734.713 39.118 732.342 C 41.403 734.627 41.463 737.305 39.118 739.65 C 41.463 737.305 44.002 737.226 46.426 739.65 Z " fill="rgb(255,255,255)"/></g></g></g></g></g></g></g></g></g></svg>