<?xml version="1.0" standalone="no"?><!-- Generator: Gravit.io --><svg xmlns="http://www.w3.org/2000/svg" xmlns:xlink="http://www.w3.org/1999/xlink" style="isolation:isolate" viewBox="0 0 600 1080" width="600" height="1080"><defs><clipPath id="_clipPath_Ws20q0VIuve0tyaL3IMyOvMz3SKn2Y5h"><rect width="600" height="1080"/></clipPath></defs><g clip-path="url(#_clipPath_Ws20q0VIuve0tyaL3IMyOvMz3SKn2Y5h)"><g id="star4"><g id="star5"><g id="star4"/></g></g><g id="star3"><g id="star4"><g id="star5"><g id="star4"><g id="star"><g id="Group"><path d=" M 587.704 14.057 L 556.003 15.948 L 554.591 47.674 L 552.7 15.973 L 520.974 14.561 L 552.675 12.67 L 554.087 -19.056 L 555.978 12.645 L 587.704 14.057 Z " fill="rgb(255,255,255)"/><path d=" M 547.136 7.933 C 551.8 12.598 551.689 16.959 547.136 21.512 C 551.689 16.959 556.308 17.105 560.715 21.512 C 556.469 17.266 556.357 12.29 560.715 7.933 C 556.357 12.29 551.639 12.437 547.136 7.933 Z " fill="rgb(255,255,255)"/></g></g></g></g></g></g><g id="star3"><g id="star4"><g id="star5"><g id="star4"><g id="star"><g id="Group"><path d=" M 647.245 57.2 L 615.544 59.091 L 614.132 90.818 L 612.241 59.116 L 580.514 57.705 L 612.216 55.813 L 613.627 24.087 L 615.519 55.788 L 647.245 57.2 Z " fill="rgb(255,255,255)"/><path d=" M 606.677 51.076 C 611.341 55.741 611.23 60.102 606.677 64.655 C 611.23 60.102 615.849 60.249 620.255 64.655 C 616.01 60.41 615.898 55.434 620.255 51.076 C 615.898 55.434 611.18 55.58 606.677 51.076 Z " fill="rgb(255,255,255)"/></g></g></g></g></g></g><g id="star3"><g id="star4"><g id="star5"><g id="star4"><g id="star"><g id="Group"><path d=" M 486.619 926.681 L 454.917 928.572 L 453.506 960.299 L 451.614 928.597 L 419.888 927.186 L 451.589 925.294 L 453.001 893.568 L 454.892 925.269 L 486.619 926.681 Z " fill="rgb(255,255,255)"/><path d=" M 446.05 920.558 C 450.714 925.222 450.603 929.583 446.05 934.137 C 450.603 929.583 455.222 929.73 459.629 934.137 C 455.383 929.891 455.272 924.915 459.629 920.558 C 455.272 924.915 450.553 925.061 446.05 920.558 Z " fill="rgb(255,255,255)"/></g></g></g></g></g></g><g id="star3"><g id="star4"><g id="star5"><g id="star4"><g id="star"><g id="Group"><path d=" M 602.39 718.271 L 570.688 720.162 L 569.276 751.888 L 567.385 720.187 L 535.659 718.775 L 567.36 716.884 L 568.772 685.158 L 570.663 716.859 L 602.39 718.271 Z " fill="rgb(255,255,255)"/><path d=" M 561.821 712.147 C 566.485 716.812 566.374 721.173 561.821 725.726 C 566.374 721.173 570.993 721.319 575.4 725.726 C 571.154 721.48 571.043 716.504 575.4 712.147 C 571.043 716.504 566.324 716.651 561.821 712.147 Z " fill="rgb(255,255,255)"/></g></g></g></g></g></g><g id="star2"><g id="star3"><g id="star4"><g id="star5"><g id="star4"><g id="star"><g id="Group"><path d=" M 151.975 186.911 L 129.419 188.257 L 128.414 210.831 L 127.069 188.275 L 104.495 187.27 L 127.051 185.925 L 128.055 163.351 L 129.401 185.907 L 151.975 186.911 Z " fill="rgb(255,255,255)"/><path d=" M 123.11 182.554 C 126.429 185.873 126.349 188.976 123.11 192.216 C 126.349 188.976 129.636 189.08 132.771 192.216 C 129.75 189.195 129.671 185.654 132.771 182.554 C 129.671 185.654 126.314 185.759 123.11 182.554 Z " fill="rgb(255,255,255)"/></g></g></g></g></g></g></g><g id="star2"><g id="star3"><g id="star4"><g id="star5"><g id="star4"><g id="star"><g id="Group"><path d=" M 631.684 458.71 L 609.128 460.056 L 608.124 482.63 L 606.778 460.073 L 584.204 459.069 L 606.76 457.723 L 607.765 435.149 L 609.11 457.705 L 631.684 458.71 Z " fill="rgb(255,255,255)"/><path d=" M 602.819 454.353 C 606.138 457.672 606.059 460.775 602.819 464.015 C 606.059 460.775 609.345 460.879 612.481 464.015 C 609.46 460.994 609.381 457.453 612.481 454.353 C 609.381 457.453 606.023 457.557 602.819 454.353 Z " fill="rgb(255,255,255)"/></g></g></g></g></g></g></g><g id="star2"><g id="star3"><g id="star4"><g id="star5"><g id="star4"><g id="star"><g id="Group"><path d=" M 204.629 96.421 L 182.073 97.767 L 181.069 120.341 L 179.723 97.784 L 157.149 96.78 L 179.705 95.434 L 180.71 72.86 L 182.055 95.416 L 204.629 96.421 Z " fill="rgb(255,255,255)"/><path d=" M 175.764 92.064 C 179.083 95.383 179.004 98.486 175.764 101.726 C 179.004 98.486 182.29 98.59 185.426 101.726 C 182.405 98.705 182.326 95.164 185.426 92.064 C 182.326 95.164 178.968 95.268 175.764 92.064 Z " fill="rgb(255,255,255)"/></g></g></g></g></g></g></g><g id="star2"><g id="star3"><g id="star4"><g id="star5"><g id="star4"><g id="star"><g id="Group"><path d=" M 524.702 1069.537 L 502.146 1070.883 L 501.141 1093.457 L 499.795 1070.901 L 477.221 1069.896 L 499.778 1068.55 L 500.782 1045.976 L 502.128 1068.533 L 524.702 1069.537 Z " fill="rgb(255,255,255)"/><path d=" M 495.836 1065.18 C 499.155 1068.499 499.076 1071.602 495.836 1074.842 C 499.076 1071.602 502.363 1071.706 505.498 1074.842 C 502.477 1071.821 502.398 1068.28 505.498 1065.18 C 502.398 1068.28 499.041 1068.385 495.836 1065.18 Z " fill="rgb(255,255,255)"/></g></g></g></g></g></g></g><g id="star2"><g id="star3"><g id="star4"><g id="star5"><g id="star4"><g id="star"><g id="Group"><path d=" M 584.204 480.509 L 561.648 481.855 L 560.643 504.429 L 559.298 481.873 L 536.724 480.869 L 559.28 479.523 L 560.284 456.949 L 561.63 479.505 L 584.204 480.509 Z " fill="rgb(255,255,255)"/><path d=" M 555.339 476.153 C 558.658 479.471 558.578 482.575 555.339 485.814 C 558.578 482.575 561.865 482.679 565 485.814 C 561.979 482.793 561.9 479.253 565 476.153 C 561.9 479.253 558.543 479.357 555.339 476.153 Z " fill="rgb(255,255,255)"/></g></g></g></g></g></g></g><g id="star2"><g id="star3"><g id="star4"><g id="star5"><g id="star4"><g id="star"><g id="Group"><path d=" M 508.799 150.407 L 486.243 151.753 L 485.238 174.327 L 483.893 151.77 L 461.319 150.766 L 483.875 149.42 L 484.879 126.846 L 486.225 149.403 L 508.799 150.407 Z " fill="rgb(255,255,255)"/><path d=" M 479.934 146.05 C 483.252 149.369 483.173 152.472 479.934 155.712 C 483.173 152.472 486.46 152.576 489.595 155.712 C 486.574 152.691 486.495 149.15 489.595 146.05 C 486.495 149.15 483.138 149.254 479.934 146.05 Z " fill="rgb(255,255,255)"/></g></g></g></g></g></g></g><g id="star2"><g id="star3"><g id="star4"><g id="star5"><g id="star4"><g id="star"><g id="Group"><path d=" M 204.629 12.803 L 182.073 14.148 L 181.069 36.722 L 179.723 14.166 L 157.149 13.162 L 179.705 11.816 L 180.71 -10.758 L 182.055 11.798 L 204.629 12.803 Z " fill="rgb(255,255,255)"/><path d=" M 175.764 8.446 C 179.083 11.765 179.004 14.868 175.764 18.107 C 179.004 14.868 182.29 14.972 185.426 18.107 C 182.405 15.086 182.326 11.546 185.426 8.446 C 182.326 11.546 178.968 11.65 175.764 8.446 Z " fill="rgb(255,255,255)"/></g></g></g></g></g></g></g><g id="star2"><g id="star3"><g id="star4"><g id="star5"><g id="star4"><g id="star"><g id="Group"><path d=" M 631.684 820.38 L 609.128 821.726 L 608.124 844.3 L 606.778 821.744 L 584.204 820.739 L 606.76 819.393 L 607.765 796.819 L 609.11 819.376 L 631.684 820.38 Z " fill="rgb(255,255,255)"/><path d=" M 602.819 816.023 C 606.138 819.342 606.059 822.445 602.819 825.685 C 606.059 822.445 609.345 822.549 612.481 825.685 C 609.46 822.664 609.381 819.123 612.481 816.023 C 609.381 819.123 606.023 819.227 602.819 816.023 Z " fill="rgb(255,255,255)"/></g></g></g></g></g></g></g><g id="star2"><g id="star3"><g id="star4"><g id="star5"><g id="star4"><g id="star"><g id="Group"><path d=" M 532.539 7.396 L 509.983 8.741 L 508.979 31.315 L 507.633 8.759 L 485.059 7.755 L 507.615 6.409 L 508.619 -16.165 L 509.965 6.391 L 532.539 7.396 Z " fill="rgb(255,255,255)"/><path d=" M 503.674 3.039 C 506.993 6.358 506.914 9.461 503.674 12.7 C 506.914 9.461 510.2 9.565 513.335 12.7 C 510.314 9.679 510.235 6.139 513.335 3.039 C 510.235 6.139 506.878 6.243 503.674 3.039 Z " fill="rgb(255,255,255)"/></g></g></g></g></g></g></g><g id="star2"><g id="star3"><g id="star4"><g id="star5"><g id="star4"><g id="star"><g id="Group"><path d=" M 534.099 746.04 L 511.543 747.386 L 510.538 769.96 L 509.193 747.403 L 486.619 746.399 L 509.175 745.053 L 510.179 722.479 L 511.525 745.036 L 534.099 746.04 Z " fill="rgb(255,255,255)"/><path d=" M 505.234 741.683 C 508.552 745.002 508.473 748.105 505.234 751.345 C 508.473 748.105 511.76 748.209 514.895 751.345 C 511.874 748.324 511.795 744.783 514.895 741.683 C 511.795 744.783 508.438 744.887 505.234 741.683 Z " fill="rgb(255,255,255)"/></g></g></g></g></g></g></g><g id="star1"><g id="star2"><g id="star3"><g id="star4"><g id="star5"><g id="star4"><g id="star"><g id="Group"><path d=" M 391.24 218.822 L 374.178 219.839 L 373.419 236.915 L 372.401 219.853 L 355.326 219.093 L 372.387 218.075 L 373.147 201 L 374.165 218.062 L 391.24 218.822 Z " fill="rgb(255,255,255)"/><path d=" M 369.406 215.526 C 371.917 218.036 371.857 220.384 369.406 222.834 C 371.857 220.384 374.343 220.462 376.714 222.834 C 374.429 220.549 374.369 217.871 376.714 215.526 C 374.369 217.871 371.83 217.95 369.406 215.526 Z " fill="rgb(255,255,255)"/></g></g></g></g></g></g></g></g><g id="star1"><g id="star2"><g id="star3"><g id="star4"><g id="star5"><g id="star4"><g id="star"><g id="Group"><path d=" M 550.497 228.652 L 533.435 229.67 L 532.675 246.746 L 531.657 229.684 L 514.582 228.924 L 531.644 227.906 L 532.403 210.831 L 533.421 227.893 L 550.497 228.652 Z " fill="rgb(255,255,255)"/><path d=" M 528.662 225.357 C 531.173 227.867 531.113 230.214 528.662 232.665 C 531.113 230.214 533.599 230.293 535.971 232.665 C 533.685 230.38 533.626 227.702 535.971 225.357 C 533.626 227.702 531.086 227.781 528.662 225.357 Z " fill="rgb(255,255,255)"/></g></g></g></g></g></g></g></g><g id="star1"><g id="star2"><g id="star3"><g id="star4"><g id="star5"><g id="star4"/></g></g></g></g></g><g id="star1"><g id="star2"><g id="star3"><g id="star4"><g id="star5"><g id="star4"><g id="star"><g id="Group"><path d=" M 553.616 566.093 L 536.554 567.111 L 535.795 584.186 L 534.777 567.124 L 517.701 566.364 L 534.763 565.346 L 535.523 548.271 L 536.541 565.333 L 553.616 566.093 Z " fill="rgb(255,255,255)"/><path d=" M 531.782 562.797 C 534.292 565.308 534.232 567.655 531.782 570.105 C 534.232 567.655 536.718 567.733 539.09 570.105 C 536.805 567.82 536.745 565.142 539.09 562.797 C 536.745 565.142 534.206 565.221 531.782 562.797 Z " fill="rgb(255,255,255)"/></g></g></g></g></g></g></g></g><g id="star1"><g id="star2"><g id="star3"><g id="star4"><g id="star5"><g id="star4"><g id="star"><g id="Group"><path d=" M 57.776 165.269 L 40.714 166.287 L 39.954 183.362 L 38.936 166.301 L 21.861 165.541 L 38.923 164.523 L 39.683 147.448 L 40.701 164.509 L 57.776 165.269 Z " fill="rgb(255,255,255)"/><path d=" M 35.942 161.974 C 38.452 164.484 38.392 166.831 35.942 169.282 C 38.392 166.831 40.878 166.91 43.25 169.282 C 40.965 166.997 40.905 164.319 43.25 161.974 C 40.905 164.319 38.365 164.397 35.942 161.974 Z " fill="rgb(255,255,255)"/></g></g></g></g></g></g></g></g><g id="star1"><g id="star2"><g id="star3"><g id="star4"><g id="star5"><g id="star4"><g id="star"><g id="Group"><path d=" M 300 174.191 L 282.938 175.209 L 282.178 192.284 L 281.161 175.222 L 264.085 174.463 L 281.147 173.445 L 281.907 156.369 L 282.925 173.431 L 300 174.191 Z " fill="rgb(255,255,255)"/><path d=" M 278.166 170.895 C 280.676 173.406 280.616 175.753 278.166 178.204 C 280.616 175.753 283.102 175.832 285.474 178.204 C 283.189 175.918 283.129 173.24 285.474 170.895 C 283.129 173.24 280.59 173.319 278.166 170.895 Z " fill="rgb(255,255,255)"/></g></g></g></g></g></g></g></g><g id="star1"><g id="star2"><g id="star3"><g id="star4"><g id="star5"><g id="star4"><g id="star"><g id="Group"><path d=" M 307.236 138.162 L 290.175 139.18 L 289.415 156.255 L 288.397 139.194 L 271.322 138.434 L 288.383 137.416 L 289.143 120.341 L 290.161 137.402 L 307.236 138.162 Z " fill="rgb(255,255,255)"/><path d=" M 285.402 134.867 C 287.913 137.377 287.853 139.724 285.402 142.175 C 287.853 139.724 290.339 139.803 292.71 142.175 C 290.425 139.89 290.365 137.212 292.71 134.867 C 290.365 137.212 287.826 137.29 285.402 134.867 Z " fill="rgb(255,255,255)"/></g></g></g></g></g></g></g></g><g id="star1"><g id="star2"><g id="star3"><g id="star4"><g id="star5"><g id="star4"><g id="star"><g id="Group"><path d=" M 380.511 102.97 L 363.45 103.988 L 362.69 121.063 L 361.672 104.002 L 344.597 103.242 L 361.659 102.224 L 362.418 85.149 L 363.436 102.211 L 380.511 102.97 Z " fill="rgb(255,255,255)"/><path d=" M 358.677 99.675 C 361.188 102.185 361.128 104.532 358.677 106.983 C 361.128 104.532 363.614 104.611 365.986 106.983 C 363.7 104.698 363.641 102.02 365.986 99.675 C 363.641 102.02 361.101 102.099 358.677 99.675 Z " fill="rgb(255,255,255)"/></g></g></g></g></g></g></g></g><g id="star1"><g id="star2"><g id="star3"><g id="star4"><g id="star5"><g id="star4"><g id="star"><g id="Group"><path d=" M 373.283 8.885 L 356.221 9.903 L 355.461 26.978 L 354.443 9.916 L 337.368 9.157 L 354.43 8.139 L 355.19 -8.936 L 356.208 8.125 L 373.283 8.885 Z " fill="rgb(255,255,255)"/><path d=" M 351.449 5.589 C 353.959 8.1 353.899 10.447 351.449 12.898 C 353.899 10.447 356.385 10.526 358.757 12.898 C 356.472 10.613 356.412 7.934 358.757 5.589 C 356.412 7.934 353.873 8.013 351.449 5.589 Z " fill="rgb(255,255,255)"/></g></g></g></g></g></g></g></g><g id="star1"><g id="star2"><g id="star3"><g id="star4"><g id="star5"><g id="star4"><g id="star"><g id="Group"><path d=" M 589.531 364.302 L 572.469 365.32 L 571.709 382.395 L 570.691 365.333 L 553.616 364.574 L 570.678 363.556 L 571.438 346.48 L 572.456 363.542 L 589.531 364.302 Z " fill="rgb(255,255,255)"/><path d=" M 567.697 361.006 C 570.207 363.517 570.147 365.864 567.697 368.315 C 570.147 365.864 572.633 365.943 575.005 368.315 C 572.72 366.029 572.66 363.351 575.005 361.006 C 572.66 363.351 570.12 363.43 567.697 361.006 Z " fill="rgb(255,255,255)"/></g></g></g></g></g></g></g></g><g id="star1"><g id="star2"><g id="star3"><g id="star4"><g id="star5"><g id="star4"><g id="star"/></g></g></g></g></g></g><g id="star1"><g id="star2"><g id="star3"><g id="star4"><g id="star5"><g id="star4"><g id="star"><g id="Group"><path d=" M 65.004 -10.894 L 47.943 -9.876 L 47.183 7.199 L 46.165 -9.862 L 29.09 -10.622 L 46.151 -11.64 L 46.911 -28.715 L 47.929 -11.654 L 65.004 -10.894 Z " fill="rgb(255,255,255)"/><path d=" M 43.17 -14.189 C 45.681 -11.679 45.621 -9.332 43.17 -6.881 C 45.621 -9.332 48.107 -9.253 50.478 -6.881 C 48.193 -9.166 48.133 -11.844 50.478 -14.189 C 48.133 -11.844 45.594 -11.766 43.17 -14.189 Z " fill="rgb(255,255,255)"/></g></g></g></g></g></g></g></g><g id="star1"><g id="star2"><g id="star3"><g id="star4"><g id="star5"><g id="star4"><g id="star"><g id="Group"><path d=" M 580.514 328.387 L 563.453 329.405 L 562.693 346.48 L 561.675 329.419 L 544.6 328.659 L 561.661 327.641 L 562.421 310.566 L 563.439 327.627 L 580.514 328.387 Z " fill="rgb(255,255,255)"/><path d=" M 558.68 325.092 C 561.191 327.602 561.131 329.949 558.68 332.4 C 561.131 329.949 563.617 330.028 565.988 332.4 C 563.703 330.115 563.643 327.437 565.988 325.092 C 563.643 327.437 561.104 327.515 558.68 325.092 Z " fill="rgb(255,255,255)"/></g></g></g></g></g></g></g></g></g></svg>